<?xml version="1.0" standalone="no"?>
<!DOCTYPE svg PUBLIC "-//W3C//DTD SVG 20010904//EN"
 "http://www.w3.org/TR/2001/REC-SVG-20010904/DTD/svg10.dtd">
<svg version="1.0" xmlns="http://www.w3.org/2000/svg"
 width="700.000000pt" height="700.000000pt" viewBox="0 0 700.000000 700.000000"
 preserveAspectRatio="xMidYMid meet">
<metadata>
Created by potrace 1.14, written by Peter Selinger 2001-2017
</metadata>
<g transform="translate(0.000000,700.000000) scale(0.100000,-0.100000)"
fill="#000000" stroke="none">
<path d="M4820 5801 c0 -4 22 -29 49 -54 28 -26 47 -48 43 -51 -9 -5 -128 -19
-162 -19 -14 0 -38 4 -54 8 -18 5 -27 4 -23 -2 3 -5 1 -10 -6 -11 -7 0 -60 -3
-119 -5 -90 -5 -106 -3 -101 9 3 8 9 14 13 14 17 0 18 29 1 45 -18 15 -20 13
-45 -28 -14 -25 -32 -47 -39 -50 -8 -3 -34 7 -58 21 -48 29 -58 33 -104 39
l-30 4 35 -30 c19 -16 32 -32 29 -35 -5 -5 -22 -8 -92 -15 -5 -1 -1 -8 7 -17
9 -9 36 -17 61 -18 24 -1 47 -5 51 -8 3 -4 12 -4 19 -2 30 12 19 -27 -31 -106
-30 -47 -61 -101 -70 -120 -9 -19 -19 -37 -23 -40 -16 -13 -105 -155 -128
-207 -14 -32 -30 -61 -36 -64 -5 -3 -8 -10 -8 -15 1 -8 -73 -131 -164 -271
-22 -34 -57 -90 -78 -124 l-39 -61 -34 50 c-19 28 -61 80 -94 114 -86 89 -278
347 -312 418 -7 14 -24 41 -38 60 -15 19 -47 67 -72 105 l-45 71 50 2 c27 0
52 3 55 6 2 3 -13 13 -34 22 -22 9 -47 21 -57 26 -10 5 -22 6 -27 3 -10 -6
-32 22 -97 120 -26 39 -59 83 -75 100 -26 27 -29 28 -45 12 -9 -9 -13 -20 -9
-24 4 -4 11 -2 15 5 10 16 29 -4 34 -34 2 -10 9 -29 15 -41 9 -17 10 -23 1
-23 -7 0 -5 -9 5 -25 17 -25 17 -26 -11 -20 -15 3 -41 9 -58 12 -16 3 -38 9
-47 14 -10 5 -18 7 -18 4 0 -3 -10 -1 -21 6 -12 6 -43 13 -68 16 -25 2 -50 9
-56 15 -7 7 -7 9 0 6 6 -3 19 -2 30 3 15 6 8 8 -25 9 -73 2 -127 11 -147 23
-6 4 -14 3 -18 -3 -3 -6 -17 -8 -30 -6 -39 7 -46 15 -35 37 11 20 9 21 -25 23
-12 1 -28 17 -43 44 -13 23 -32 47 -43 52 -16 9 -19 7 -19 -14 0 -15 7 -27 19
-31 19 -6 48 -61 38 -72 -4 -3 -27 -5 -53 -5 -35 1 -45 -2 -40 -13 3 -10 -14
-20 -62 -36 -37 -13 -69 -24 -72 -24 -3 -1 -25 -5 -50 -9 -25 -4 -65 -15 -90
-23 -25 -8 -53 -17 -62 -19 -10 -2 -27 -6 -38 -9 -34 -8 -126 -28 -140 -30 -3
0 -11 -4 -18 -8 -6 -5 -12 -6 -12 -3 0 3 -11 1 -26 -4 -14 -6 -39 -13 -57 -16
-46 -9 -46 -8 -105 -31 -9 -3 -19 -7 -22 -8 -3 0 -21 -6 -40 -13 -79 -26 -117
-21 -151 22 -20 25 -32 17 -33 -21 -1 -17 -6 -27 -14 -26 -6 2 -12 -2 -12 -7
0 -5 -3 -9 -8 -9 -19 3 -23 -2 -13 -15 7 -8 21 -12 31 -9 11 3 20 1 20 -5 0
-5 -9 -12 -21 -15 -34 -9 -13 -25 26 -20 50 7 44 -11 -12 -38 -61 -29 -58 -28
-47 -39 7 -7 26 -2 58 14 44 22 76 25 76 7 0 -4 13 -22 29 -41 17 -19 63 -75
103 -125 40 -49 76 -91 80 -93 5 -2 8 -8 8 -13 0 -5 8 -17 18 -27 18 -20 25
-28 82 -101 19 -25 42 -52 50 -61 8 -9 31 -36 50 -60 19 -24 46 -57 60 -74 14
-17 30 -38 37 -46 56 -69 266 -327 307 -376 28 -33 65 -78 81 -99 17 -21 35
-43 40 -49 14 -16 72 -84 125 -146 25 -30 52 -61 60 -70 8 -9 38 -43 65 -75
67 -79 118 -135 255 -278 63 -66 115 -127 114 -136 0 -12 -145 -220 -206 -296
-4 -5 -56 -73 -113 -150 -58 -77 -116 -153 -128 -169 -12 -16 -34 -45 -49 -65
-15 -20 -33 -43 -41 -51 -42 -47 -124 -160 -193 -265 -43 -66 -83 -123 -89
-127 -6 -5 -6 -8 0 -8 6 0 6 -3 -1 -8 -5 -4 -46 -61 -89 -127 -219 -334 -449
-680 -459 -691 -13 -13 -68 -82 -77 -96 -4 -7 -13 -7 -25 0 -11 5 -31 12 -46
16 -22 5 -26 3 -22 -9 4 -8 12 -15 18 -15 7 0 21 -6 31 -14 17 -12 17 -15 -16
-57 -19 -24 -40 -50 -47 -57 -7 -8 -9 -18 -6 -24 6 -9 94 79 94 95 0 5 5 5 10
2 11 -7 -13 -46 -56 -92 -13 -14 -24 -30 -24 -34 0 -14 18 -10 27 5 4 8 25 33
47 56 28 30 41 38 47 29 7 -13 22 -17 69 -23 29 -3 135 -52 209 -96 29 -16 58
-30 66 -30 8 0 15 -4 15 -9 0 -5 13 -14 30 -19 22 -8 29 -8 27 1 -2 13 22 11
62 -5 14 -6 28 -12 31 -13 3 -1 19 -8 35 -15 17 -7 32 -14 35 -15 64 -16 232
-88 190 -82 -35 6 -54 11 -60 17 -12 12 -71 28 -68 18 6 -18 141 -58 155 -46
9 7 22 6 46 -6 17 -8 25 -16 16 -16 -8 0 -20 5 -26 11 -6 6 -17 9 -25 6 -14
-5 26 -24 64 -29 13 -2 29 -7 36 -12 21 -13 127 -16 164 -5 18 6 73 12 121 14
96 5 174 11 252 21 28 4 61 6 74 6 12 -1 28 1 34 5 7 4 32 9 57 10 25 2 56 6
70 10 14 3 42 5 63 4 36 -3 38 -2 25 18 -7 12 -17 21 -23 22 -5 1 -35 2 -65 4
-75 3 -74 3 -60 20 7 8 9 15 5 15 -5 0 2 8 13 19 12 10 22 23 22 29 0 6 4 12
8 14 10 4 86 106 146 196 27 40 56 77 65 82 9 5 13 10 8 10 -4 0 29 54 72 119
71 105 83 119 103 113 19 -4 21 -3 12 9 -14 17 -4 45 28 79 12 13 22 28 21 32
-2 5 4 8 12 8 8 0 15 6 15 14 0 12 110 175 143 212 28 31 37 44 37 51 0 5 9
14 20 21 11 7 20 17 20 23 0 5 44 76 98 157 54 81 140 212 192 292 51 80 102
154 114 165 12 11 27 32 33 48 7 15 26 35 43 45 23 14 27 21 18 30 -9 9 -9 12
0 12 7 0 12 4 12 10 0 5 7 18 15 27 38 48 185 255 185 262 0 5 4 11 8 13 4 2
40 53 80 113 40 61 75 115 80 120 4 6 34 55 66 110 33 55 66 110 73 123 7 12
20 22 28 22 7 0 17 4 20 10 3 6 -1 7 -9 4 -21 -8 -20 12 2 44 10 15 27 44 37
65 11 20 24 37 29 37 5 0 7 3 4 6 -4 3 14 39 38 80 24 41 44 79 44 84 0 6 5
10 12 10 6 0 9 3 5 6 -3 3 12 35 34 70 21 35 35 64 31 64 -4 0 -2 4 4 8 5 4
22 27 35 52 79 139 96 169 168 285 76 122 157 247 170 262 6 7 11 17 11 22 0
5 6 16 13 23 7 7 37 53 66 102 30 49 62 96 73 105 10 8 18 22 18 31 1 33 36
63 79 66 22 2 46 6 51 9 15 10 12 28 -4 22 -8 -3 -17 1 -20 9 -3 8 -15 14 -26
14 -12 0 -29 7 -37 16 -9 9 -41 34 -72 57 -31 23 -58 44 -61 47 -3 3 -25 21
-50 40 -25 19 -46 38 -48 42 -2 5 -10 8 -18 8 -8 0 -14 3 -14 8 0 4 -27 25
-60 47 -33 22 -60 43 -60 48 0 4 -6 7 -13 7 -8 0 -22 9 -32 20 -10 11 -22 20
-27 20 -5 0 -14 5 -21 10 -47 40 -63 51 -88 62 -17 8 -29 21 -29 32 0 12 -5
16 -15 13 -8 -4 -17 -2 -20 4 -4 5 -10 7 -15 4 -4 -3 -32 14 -62 37 -68 52
-65 50 -50 55 6 3 12 11 12 19 0 7 16 20 35 28 42 18 46 31 8 21 -102 -26
-131 -27 -163 -8 -16 9 -30 20 -30 24 0 7 -73 59 -83 59 -4 0 -7 -4 -7 -9z
m-2332 -289 c33 -58 51 -88 65 -106 4 -6 42 -59 85 -117 42 -59 86 -119 97
-134 11 -15 25 -32 31 -39 34 -36 173 -233 171 -241 -4 -11 24 -46 33 -40 6 4
100 -128 100 -141 0 -4 18 -29 39 -54 22 -26 41 -57 43 -71 1 -13 10 -24 18
-24 21 0 31 -16 24 -40 -4 -14 -3 -16 4 -7 9 13 11 11 78 -71 8 -9 14 -19 14
-22 0 -5 40 -53 73 -87 9 -10 17 -21 17 -24 0 -4 13 -19 28 -34 24 -23 28 -33
25 -73 -3 -49 10 -63 23 -25 3 12 12 28 19 35 7 7 15 18 18 25 3 10 9 9 24 -4
22 -20 33 -23 33 -9 0 9 60 105 80 129 6 6 8 12 5 12 -4 0 3 14 15 30 12 17
18 30 13 30 -4 0 -3 4 3 8 6 4 25 34 44 67 19 33 36 62 39 65 3 3 12 17 20 33
8 15 18 27 23 27 4 0 8 5 8 12 0 7 11 28 24 47 78 117 222 338 225 346 2 6 7
12 10 15 3 3 49 69 101 147 80 121 98 142 115 137 11 -4 22 -10 25 -13 5 -7
82 -50 230 -129 194 -103 399 -236 400 -259 0 -9 -14 -8 -52 3 -29 9 -57 20
-62 25 -6 5 -18 9 -28 9 -10 0 -18 5 -18 11 0 6 -7 9 -15 5 -8 -3 -15 -1 -15
4 0 6 -6 10 -14 10 -7 0 -19 7 -26 15 -6 8 -15 14 -18 13 -4 -1 -17 3 -29 10
-13 7 -23 10 -23 6 0 -4 -8 0 -17 8 -10 8 -37 23 -60 34 -24 10 -43 21 -43 24
0 4 -18 13 -40 20 -22 7 -40 17 -40 22 0 4 -6 8 -12 8 -7 0 -40 14 -72 30 -86
44 -111 39 -58 -11 34 -32 108 -89 115 -89 4 0 17 -10 31 -22 51 -48 86 -75
86 -69 0 8 -99 97 -133 119 -12 8 -26 20 -32 27 -5 6 -19 17 -30 23 -42 24 9
11 66 -17 32 -17 59 -27 59 -23 0 4 4 3 8 -3 8 -12 23 -20 112 -64 36 -18 73
-37 83 -42 10 -5 22 -7 27 -4 6 4 10 2 10 -4 0 -12 89 -56 108 -53 6 2 12 -1
12 -7 0 -5 15 -13 33 -16 17 -4 37 -12 44 -17 7 -5 17 -7 23 -3 5 3 10 2 10
-4 0 -5 8 -8 18 -6 24 3 16 34 -16 62 -23 20 -24 23 -7 20 11 -2 36 -11 55
-19 29 -13 37 -13 49 -3 12 11 7 20 -31 57 -25 24 -55 51 -67 61 -13 10 -20
21 -17 24 3 3 12 1 20 -6 8 -6 22 -13 32 -15 11 -2 51 -16 89 -31 39 -15 80
-27 93 -26 12 0 22 -4 22 -9 0 -16 28 -11 38 6 8 15 10 15 15 0 4 -9 2 -16 -2
-16 -5 0 -8 -8 -7 -17 5 -29 -73 -159 -313 -528 -36 -55 -64 -103 -63 -107 1
-4 -7 -12 -18 -18 -11 -6 -20 -15 -20 -21 0 -6 -11 -25 -25 -43 -26 -34 -32
-52 -15 -41 6 3 7 -1 4 -9 -7 -19 -20 -21 -28 -3 -3 6 -3 0 0 -15 4 -18 2 -28
-6 -28 -6 0 -8 -4 -5 -10 3 -5 2 -10 -3 -10 -5 0 -14 -11 -20 -24 -5 -13 -38
-65 -71 -117 -43 -66 -57 -95 -48 -101 11 -7 10 -9 -12 -12 -5 0 -13 -5 -18
-10 -5 -5 -2 -6 6 -1 9 5 12 3 9 -6 -3 -8 -11 -13 -17 -11 -7 1 -10 -2 -7 -7
11 -17 -69 -136 -93 -139 -18 -3 -22 -8 -17 -25 5 -22 -59 -137 -77 -137 -6 0
-8 -3 -4 -6 3 -3 -24 -51 -59 -106 -88 -136 -144 -228 -144 -238 0 -5 -4 -10
-8 -12 -5 -1 -37 -51 -71 -110 -36 -62 -69 -108 -78 -108 -9 0 -13 -6 -10 -14
4 -11 -99 -180 -143 -233 -6 -7 -10 -16 -10 -22 0 -5 -3 -11 -7 -13 -5 -1 -44
-57 -88 -123 -96 -145 -251 -362 -393 -548 -72 -94 -108 -134 -113 -125 -6 9
-8 7 -7 -7 1 -11 -51 -91 -121 -184 -67 -91 -126 -171 -130 -179 -5 -9 -22
-15 -40 -14 -35 1 -51 -16 -27 -30 9 -5 16 -14 16 -21 -1 -17 -56 -88 -63 -80
-4 3 -11 -5 -16 -18 -5 -13 -32 -51 -60 -84 -28 -33 -85 -109 -127 -170 -84
-120 -99 -136 -120 -128 -8 3 -14 0 -14 -6 0 -6 7 -11 15 -11 19 0 19 -7 1
-26 -17 -16 -42 -18 -51 -4 -4 6 -11 8 -16 5 -5 -4 -9 -1 -9 4 0 6 -5 11 -11
11 -11 0 -83 31 -256 111 -78 35 -141 64 -230 104 -35 15 -63 32 -63 36 0 5
17 2 38 -7 20 -10 47 -18 59 -18 11 -1 19 -4 17 -7 -4 -7 45 -24 59 -21 4 1 7
-2 7 -7 0 -5 11 -12 24 -15 27 -7 150 -61 240 -106 32 -17 65 -30 72 -30 8 0
14 -4 14 -10 0 -5 7 -10 15 -10 8 0 15 3 15 6 0 8 -33 40 -37 35 -5 -4 -66 20
-73 29 -14 16 -301 151 -310 145 -6 -4 -9 -1 -8 6 2 7 -1 14 -7 14 -19 2 -130
58 -133 66 -2 5 -8 7 -13 3 -5 -3 -9 0 -9 5 0 12 13 14 24 4 6 -6 63 -29 91
-37 6 -1 27 -10 48 -19 21 -9 41 -16 45 -16 19 3 51 -15 45 -24 -3 -6 -1 -7 6
-3 6 4 17 3 24 -2 13 -10 67 -26 80 -24 4 1 7 -3 7 -8 0 -6 8 -10 18 -10 9 0
29 -6 44 -14 20 -10 29 -11 39 -2 9 8 10 8 4 -2 -4 -9 0 -15 14 -19 12 -3 21
-9 21 -13 0 -7 12 -7 38 -1 5 1 -51 45 -75 58 -14 8 -24 9 -28 3 -4 -6 -26 -2
-55 9 -28 11 -50 16 -50 13 0 -4 -4 -2 -8 3 -7 10 -48 27 -112 48 -19 6 -38
16 -42 22 -4 5 -8 6 -8 1 0 -5 -6 -4 -12 1 -14 11 -68 27 -80 25 -5 -1 -8 3
-8 9 0 5 -4 8 -8 5 -5 -3 -20 1 -35 9 -15 8 -27 11 -27 8 0 -3 -6 -1 -12 4
-11 9 -28 15 -78 28 -3 0 -14 4 -25 7 -86 26 -96 12 -17 -23 26 -11 85 -40
132 -62 46 -23 87 -42 90 -42 11 -1 44 -24 34 -25 -6 0 -14 3 -18 8 -4 4 -12
8 -17 8 -5 1 -10 2 -11 4 -2 1 -10 3 -18 5 -35 8 -145 51 -148 58 -2 4 -8 4
-13 1 -6 -3 -18 -2 -27 2 -20 8 -25 10 -72 19 -19 4 -46 7 -59 6 -32 -1 -28 7
87 161 54 73 125 171 157 218 33 47 62 87 65 90 3 3 30 41 59 85 368 547 452
669 463 673 4 2 8 8 8 13 0 5 37 61 83 124 45 62 123 171 172 240 50 70 122
170 161 223 98 134 184 261 183 270 -4 22 17 72 42 101 51 59 30 73 -23 15
l-33 -36 -20 25 c-11 14 -31 40 -45 58 -40 53 -72 84 -82 81 -5 -1 -7 2 -3 7
3 6 -11 27 -32 48 -22 22 -51 55 -67 76 -16 20 -33 37 -38 37 -6 0 -5 -8 2
-17 19 -26 -52 49 -78 82 -12 15 -22 32 -22 38 0 5 20 -16 44 -47 23 -30 46
-53 49 -50 3 4 1 12 -6 18 -7 7 -25 29 -42 50 -43 54 -73 86 -81 86 -4 0 3
-11 15 -24 14 -15 19 -26 12 -31 -6 -3 -11 -1 -11 4 0 6 -16 28 -35 50 -35 38
-45 59 -23 45 7 -4 8 -3 4 5 -4 6 -11 9 -16 6 -9 -6 -12 -3 -82 77 -25 29 -62
71 -82 93 -19 22 -64 75 -98 117 -35 42 -69 77 -77 77 -8 1 -12 4 -8 7 3 4 1
12 -6 19 -7 6 -30 33 -52 59 -64 77 -75 89 -108 126 -18 19 -64 78 -103 130
-39 52 -81 106 -93 120 -11 14 -24 30 -29 35 -61 75 -178 212 -186 220 -6 6
-43 48 -81 95 -39 47 -73 87 -77 88 -14 7 -8 30 10 37 34 13 61 15 87 5 15 -6
24 -6 20 -1 -3 5 -1 12 5 16 14 8 52 -14 44 -26 -6 -10 8 -9 91 6 75 14 334
92 349 104 7 6 15 8 18 5 3 -3 23 2 43 10 22 10 55 14 81 12 23 -3 44 -1 46 2
2 4 25 16 52 27 72 29 69 42 -9 39 -36 -1 -65 2 -65 7 0 5 5 10 10 10 6 1 13
2 18 3 4 1 27 6 52 10 25 5 53 14 63 21 32 23 68 1 105 -63z m2122 65 c-3 -3
-25 -7 -50 -11 -25 -3 -39 -2 -33 2 13 8 91 16 83 9z m478 -22 c3 -3 -25 -5
-62 -5 -37 0 -65 4 -62 8 5 9 115 6 124 -3z m-672 -11 c19 -9 34 -19 34 -23 0
-16 66 -74 135 -118 28 -18 55 -36 60 -40 40 -31 67 -43 78 -34 9 7 20 4 37
-9 14 -11 30 -20 37 -20 6 0 13 -3 15 -8 2 -4 27 -23 56 -41 30 -19 59 -39 65
-46 7 -6 27 -17 45 -24 30 -13 44 -31 22 -31 -5 0 -10 5 -10 11 0 5 -4 7 -10
4 -5 -3 -10 -1 -10 4 0 6 -6 11 -13 11 -7 0 -22 7 -32 15 -11 9 -49 34 -85 57
-36 23 -68 47 -72 53 -5 7 -14 6 -28 -2 -11 -7 -23 -13 -27 -13 -5 0 0 5 10
11 9 5 17 14 17 20 0 5 -7 5 -18 -2 -14 -9 -33 -2 -97 32 -44 24 -120 64 -170
89 -68 35 -91 52 -96 70 -5 22 5 50 18 50 3 0 20 -7 39 -16z m329 6 c3 -5 1
-10 -4 -10 -6 0 -11 5 -11 10 0 6 2 10 4 10 3 0 8 -4 11 -10z m140 0 c-3 -5
-12 -10 -18 -10 -7 0 -6 4 3 10 19 12 23 12 15 0z m-196 -26 c3 -3 -16 -4 -42
-3 -27 2 -51 7 -53 11 -6 9 86 1 95 -8z m39 0 c6 3 13 2 16 -2 3 -5 -4 -9 -16
-8 -12 0 -23 8 -25 16 -4 12 -3 13 5 1 5 -7 14 -11 20 -7z m218 4 c3 -4 -1 -5
-10 -4 -8 1 -18 5 -22 8 -3 4 1 5 10 4 8 -1 18 -5 22 -8z m204 1 c0 -5 -16 -8
-35 -7 -20 1 -31 4 -24 8 16 10 59 9 59 -1z m-80 -8 c0 -5 16 -9 36 -9 20 0
40 -4 45 -9 5 -5 -10 -8 -34 -8 -28 0 -50 6 -61 18 -15 15 -15 17 -2 17 9 0
16 -4 16 -9z m-188 -22 c-1 -8 4 -6 13 5 8 11 15 15 15 9 0 -6 23 -9 59 -7 32
1 64 -2 72 -7 9 -6 -5 -9 -41 -10 -50 0 -110 -3 -257 -13 -54 -3 -85 6 -64 18
6 4 11 2 11 -4 0 -6 5 -8 12 -4 6 4 48 7 92 7 56 -1 75 1 64 8 -10 5 -28 8
-41 5 -13 -2 -30 -1 -36 4 -7 4 13 7 45 5 45 -1 58 -5 56 -16z m-2772 7 c0 -3
-4 -8 -10 -11 -5 -3 -10 -1 -10 4 0 6 5 11 10 11 6 0 10 -2 10 -4z m543 -40
c4 -9 -2 -12 -16 -11 -32 4 -33 4 -17 15 20 13 27 12 33 -4z m2446 -1 c5 -3
12 -1 15 4 7 11 92 9 103 -3 4 -4 -16 -6 -45 -5 -36 2 -56 -1 -61 -10 -6 -9
-11 -10 -15 -3 -4 6 -15 9 -26 7 -10 -2 -73 -5 -139 -6 -67 -1 -121 -5 -121
-8 0 -8 -59 -6 -67 2 -3 4 9 7 28 8 19 1 45 2 59 4 14 1 68 6 120 9 52 4 96 9
98 11 5 4 39 -2 51 -10z m-690 -42 c31 -20 58 -41 59 -45 4 -10 22 0 22 11 0
5 -14 14 -30 21 -17 7 -29 15 -26 17 4 4 165 -76 176 -87 3 -3 16 -11 30 -17
46 -23 129 -70 145 -83 8 -7 15 -9 15 -4 0 5 4 4 8 -1 11 -16 95 -68 109 -68
7 0 11 -3 8 -5 -6 -7 60 -52 76 -52 8 0 8 4 -1 15 -9 10 -9 15 -1 15 6 0 11
-4 11 -10 0 -5 5 -10 11 -10 6 0 9 7 6 14 -4 10 -1 13 9 9 20 -7 18 -11 -17
-32 l-31 -19 -81 46 c-45 25 -97 54 -116 63 -18 10 -41 24 -50 32 -9 7 -37 24
-63 38 -27 13 -48 27 -48 31 0 5 -5 8 -10 8 -6 0 -35 16 -65 37 -31 20 -58 33
-62 30 -8 -8 -13 -4 69 -55 37 -23 72 -42 78 -42 5 0 10 -4 10 -8 0 -10 51
-37 63 -33 5 1 6 -3 3 -8 -4 -5 4 -13 16 -17 13 -3 41 -18 63 -33 22 -14 57
-35 77 -46 21 -10 36 -21 33 -23 -5 -5 -249 121 -253 131 -2 4 -10 7 -17 7 -7
0 -15 3 -17 8 -3 6 -38 26 -208 114 -25 13 -48 27 -51 32 -4 5 -14 6 -23 3 -9
-4 -16 -2 -16 4 0 14 19 49 27 49 3 0 31 -17 62 -37z m-1699 17 c0 -5 -2 -10
-4 -10 -3 0 -8 5 -11 10 -3 6 -1 10 4 10 6 0 11 -4 11 -10z m2524 -2 c-5 -8
-2 -9 10 -5 10 4 15 3 11 -3 -7 -12 25 -28 48 -25 10 2 16 -2 14 -8 -5 -16
-55 -16 -69 0 -8 10 -34 13 -89 11 -91 -2 -106 -15 -21 -17 64 -2 82 -4 97
-12 6 -3 30 -7 55 -8 60 -3 78 -21 21 -21 -26 0 -40 -4 -36 -10 4 -6 10 -8 15
-5 5 3 11 1 15 -4 3 -6 -4 -8 -17 -4 -22 6 -97 7 -181 4 -28 -1 -36 -4 -31
-13 6 -10 4 -10 -7 -2 -8 7 -41 10 -81 8 -56 -3 -70 0 -90 17 -12 11 -17 18
-10 14 7 -4 19 -1 27 5 8 7 15 8 15 3 0 -5 7 -10 15 -10 12 0 12 3 2 16 -10
13 -7 13 15 -2 19 -12 29 -14 34 -5 5 7 2 8 -7 3 -8 -5 -6 1 5 13 10 12 23 19
29 15 6 -3 7 -1 3 6 -4 6 -13 8 -19 4 -7 -4 -28 -8 -47 -9 -19 -1 -43 -3 -53
-3 -12 -1 -16 -6 -11 -13 5 -10 4 -10 -6 -1 -10 9 -17 9 -26 2 -9 -7 -21 -6
-41 5 -33 18 -32 18 75 21 46 2 86 6 90 11 4 4 1 4 -5 0 -7 -4 -13 -4 -13 1 0
4 36 8 81 7 44 0 82 3 85 7 2 4 19 3 36 -2 25 -7 36 -5 47 6 18 18 25 19 15 3z
m-2437 -12 c2 -2 -9 -3 -26 -2 -16 0 -27 4 -25 8 4 7 43 3 51 -6z m2128 -4
c-3 -3 -11 0 -18 7 -9 10 -8 11 6 5 10 -3 15 -9 12 -12z m-2243 -17 c2 3 37
-2 76 -10 39 -8 83 -16 96 -17 14 -1 23 -5 20 -9 -2 -4 -21 -5 -41 -2 -21 2
-68 5 -104 6 -37 1 -65 5 -63 9 2 4 0 9 -6 13 -5 3 -10 11 -10 17 0 7 4 7 13
-1 8 -6 16 -9 19 -6z m185 9 c-3 -3 -12 -4 -19 -1 -8 3 -5 6 6 6 11 1 17 -2
13 -5z m1548 -69 c50 -26 117 -62 150 -80 107 -57 233 -135 300 -185 37 -28
68 -50 70 -50 9 0 76 -72 71 -77 -5 -5 -249 111 -271 129 -17 14 -128 82 -160
98 -16 8 -32 17 -35 20 -6 6 -44 27 -155 85 -90 47 -131 75 -107 75 7 0 12 7
12 15 0 8 5 15 11 15 5 0 7 6 3 13 -6 9 -4 9 7 1 8 -6 55 -33 104 -59z m-1469
12 c3 -3 -9 -7 -26 -9 -19 -3 -30 0 -30 7 0 11 46 13 56 2z m-146 -23 c44 -7
204 -44 234 -54 16 -5 33 -7 39 -3 6 3 7 1 3 -6 -4 -6 -16 -9 -27 -6 -11 4
-32 8 -47 10 -15 2 -43 7 -62 10 -61 12 -83 15 -155 21 -65 7 -95 20 -95 42 0
6 15 6 43 0 23 -5 53 -12 67 -14z m165 -3 c-9 -8 -36 -10 -30 -2 2 4 11 8 20
8 8 0 13 -3 10 -6z m2410 -9 c-3 -3 -11 0 -18 7 -9 10 -8 11 6 5 10 -3 15 -9
12 -12z m-2331 -8 c25 -4 46 -10 46 -15 0 -8 -34 -6 -60 4 -8 3 -26 8 -40 10
-42 7 4 7 54 1z m2089 -18 c3 3 68 7 144 9 141 3 158 -1 201 -42 11 -11 11
-13 -2 -13 -9 0 -16 5 -16 10 0 6 -9 10 -19 10 -11 0 -23 5 -26 10 -3 6 -12
10 -18 10 -7 0 -6 -4 3 -10 12 -8 10 -10 -10 -12 -29 -2 -53 -5 -60 -8 -3 -1
-47 -3 -97 -5 -51 -2 -113 -6 -138 -9 -34 -4 -53 -1 -81 16 -32 19 -34 23 -18
29 10 3 36 5 56 4 21 -2 41 1 44 6 4 6 10 6 18 0 7 -6 16 -8 19 -5z m-2358
-16 c0 -1 20 -3 45 -5 25 -3 65 -9 90 -15 25 -5 68 -12 95 -15 28 -3 66 -10
85 -15 27 -7 21 -8 -25 -3 -33 3 -80 7 -105 8 -25 2 -52 5 -60 9 -8 3 -44 7
-80 10 -36 2 -68 5 -71 5 -4 1 -9 8 -13 16 -4 11 0 14 17 11 12 -3 22 -5 22
-6z m2695 -52 c0 -7 -49 -13 -72 -9 -5 0 -8 -2 -8 -6 0 -5 -15 -9 -33 -10 -95
-5 -173 -19 -192 -34 -12 -9 -74 35 -64 46 4 3 78 8 164 10 87 3 159 6 161 8
7 6 44 2 44 -5z m-2581 -24 c1 -1 14 1 27 6 19 8 22 6 17 -8 -3 -9 -3 -14 1
-10 4 3 21 2 37 -2 24 -7 29 -6 30 8 1 15 2 15 6 0 3 -14 15 -18 45 -18 29 0
39 4 35 13 -3 8 1 14 9 14 7 0 10 -5 7 -10 -4 -6 0 -8 10 -4 9 3 19 2 22 -3 6
-10 -8 -14 -34 -10 -13 2 -13 0 0 -16 12 -16 12 -17 -1 -9 -8 5 -31 11 -50 12
-29 1 -126 15 -165 23 -5 1 -23 2 -39 1 -24 -1 -26 -3 -16 -16 6 -8 17 -13 22
-12 6 1 12 -3 15 -9 2 -7 -5 -10 -21 -7 -15 3 -34 19 -46 39 l-20 35 53 -7
c28 -4 54 -8 56 -10z m94 9 c-7 -2 -19 -2 -25 0 -7 3 -2 5 12 5 14 0 19 -2 13
-5z m2585 -13 c2 -5 10 -10 18 -10 8 0 14 -4 14 -10 0 -5 3 -9 8 -8 9 3 92
-52 92 -62 0 -3 -12 -7 -27 -8 -16 -1 -62 -4 -103 -7 -41 -3 -127 -7 -190 -9
l-115 -2 -34 33 c-27 28 -31 36 -21 48 7 8 24 15 39 14 14 0 42 3 61 6 19 4
51 8 72 9 20 0 34 4 32 7 -6 10 69 6 84 -4 7 -5 14 -3 18 7 6 16 47 13 52 -4z
m-2518 2 c0 -5 -7 -9 -15 -9 -8 0 -12 4 -9 9 3 4 9 8 15 8 5 0 9 -4 9 -8z
m160 -27 c8 -9 8 -15 2 -15 -18 0 -42 12 -42 21 0 14 26 10 40 -6z m1858 -11
c22 -4 94 -45 112 -64 3 -3 24 -20 48 -37 32 -23 39 -32 27 -37 -9 -3 -18 1
-22 10 -4 11 -8 12 -13 4 -4 -7 -22 1 -51 25 -24 20 -52 43 -62 51 -9 8 -21
14 -25 14 -4 1 -20 12 -37 26 -16 15 -24 23 -17 19 7 -3 25 -9 40 -11z m-1918
-4 c0 -5 -5 -10 -11 -10 -5 0 -7 5 -4 10 3 6 8 10 11 10 2 0 4 -4 4 -10z
m-190 -14 c0 -11 -19 -15 -25 -6 -3 5 1 10 9 10 9 0 16 -2 16 -4z m-36 -38 c3
3 6 0 6 -6 0 -15 -62 -10 -67 5 -3 9 4 10 26 3 16 -4 32 -6 35 -2z m39 -15
c-3 -7 -6 -13 -8 -13 -2 0 -5 6 -8 13 -3 8 1 14 8 14 7 0 11 -6 8 -14z m207 4
c8 -4 34 -8 58 -10 23 -2 48 -9 54 -15 10 -10 5 -11 -22 -5 -19 4 -50 8 -67 8
-18 0 -33 5 -33 11 0 6 -17 10 -40 9 -21 -1 -37 2 -35 5 5 9 63 6 85 -3z
m1915 -19 c17 -10 42 -23 58 -29 15 -6 27 -17 27 -24 0 -21 -50 -1 -91 36 -18
16 -37 29 -41 29 -5 0 -6 5 -2 11 3 6 9 7 13 3 3 -5 20 -17 36 -26z m-2035 12
c0 -5 -8 -10 -17 -10 -15 0 -16 2 -3 10 19 12 20 12 20 0z m197 -56 c-3 -3
-12 -4 -19 -1 -8 3 -5 6 6 6 11 1 17 -2 13 -5z m68 -22 c-3 -3 -11 0 -18 7 -9
10 -8 11 6 5 10 -3 15 -9 12 -12z m-355 -10 c0 -5 -7 -9 -15 -9 -8 0 -12 4 -9
9 3 4 9 8 15 8 5 0 9 -4 9 -8z m30 4 c0 -3 -4 -8 -10 -11 -5 -3 -10 -1 -10 4
0 6 5 11 10 11 6 0 10 -2 10 -4z m245 -14 c-3 -3 -11 0 -18 7 -9 10 -8 11 6 5
10 -3 15 -9 12 -12z m111 -13 c3 -5 -5 -7 -18 -5 -13 3 -31 5 -40 5 -10 1 -18
5 -18 9 0 11 69 2 76 -9z m-243 -36 c-7 -2 -19 -2 -25 0 -7 3 -2 5 12 5 14 0
19 -2 13 -5z m127 -9 c36 -2 81 -6 100 -8 19 -2 41 -4 48 -5 6 -1 12 -6 12
-11 0 -6 -10 -8 -22 -5 -33 8 -85 15 -148 20 -67 5 -87 9 -96 18 -4 3 4 4 17
1 13 -2 53 -7 89 -10z m57 -50 c-3 -3 -12 -4 -19 -1 -8 3 -5 6 6 6 11 1 17 -2
13 -5z m111 -11 c-10 -2 -26 -2 -35 0 -10 3 -2 5 17 5 19 0 27 -2 18 -5z
m-301 -19 c-3 -3 -12 -4 -19 -1 -8 3 -5 6 6 6 11 1 17 -2 13 -5z m53 -3 c0 -5
-9 -7 -20 -4 -11 3 -20 7 -20 9 0 2 9 4 20 4 11 0 20 -4 20 -9z m240 -6 c19
-3 41 -6 48 -7 6 -1 12 -5 12 -10 0 -4 -16 -7 -35 -5 -19 1 -35 4 -35 7 0 3
-30 6 -68 6 -100 2 -151 7 -147 14 5 7 167 3 225 -5z m-230 -29 c0 -2 -7 -7
-16 -10 -8 -3 -12 -2 -9 4 6 10 25 14 25 6z m30 -6 c0 -5 -2 -10 -4 -10 -3 0
-8 5 -11 10 -3 6 -1 10 4 10 6 0 11 -4 11 -10z m40 4 c0 -8 -19 -13 -24 -6 -3
5 1 9 9 9 8 0 15 -2 15 -3z m140 -14 c0 -5 -2 -10 -4 -10 -3 0 -8 5 -11 10 -3
6 -1 10 4 10 6 0 11 -4 11 -10z m56 -2 c3 -4 -1 -5 -10 -4 -8 1 -18 5 -22 8
-3 4 1 5 10 4 8 -1 18 -5 22 -8z m37 -2 c4 -10 1 -13 -8 -9 -8 3 -12 9 -9 14
7 12 11 11 17 -5z m-213 -28 c0 -5 -4 -6 -10 -3 -5 3 -10 1 -10 -4 0 -7 32
-11 84 -11 46 0 92 -3 102 -7 10 -4 15 -2 11 4 -3 5 0 10 8 10 8 0 12 -4 9 -9
-5 -8 7 -10 54 -11 12 0 20 -2 16 -6 -3 -3 -22 -6 -41 -6 -30 0 -37 -4 -39
-22 -2 -13 -1 -22 4 -22 25 4 92 -2 92 -8 0 -5 -40 -8 -90 -8 -63 0 -90 4 -90
12 0 8 12 11 36 8 23 -3 33 -1 29 5 -4 6 -15 8 -25 5 -10 -3 -21 -1 -24 4 -4
6 7 8 27 6 24 -2 34 1 34 12 0 10 -8 14 -28 11 -15 -3 -26 -2 -24 2 2 4 -51 5
-118 4 -112 -2 -147 4 -147 26 0 3 7 7 15 7 8 0 12 -4 9 -9 -3 -4 0 -8 5 -8 6
0 11 4 11 9 0 5 8 11 18 14 30 7 82 4 82 -5z m230 -8 c0 -5 -5 -10 -11 -10 -5
0 -7 5 -4 10 3 6 8 10 11 10 2 0 4 -4 4 -10z m-266 -38 c3 -5 -1 -9 -9 -9 -8
0 -12 4 -9 9 3 4 7 8 9 8 2 0 6 -4 9 -8z m316 -21 c0 -4 -18 -7 -40 -7 -37 0
-48 5 -35 17 7 7 75 -2 75 -10z m-180 0 c0 -6 -5 -13 -10 -16 -6 -4 -8 -10 -6
-14 3 -4 -1 -8 -9 -8 -8 0 -15 3 -15 7 0 3 -27 6 -60 5 -33 0 -68 3 -77 7 -22
8 -15 9 79 12 37 1 70 5 74 9 10 10 24 9 24 -2z m2035 -41 c3 -5 1 -10 -4 -10
-6 0 -11 5 -11 10 0 6 2 10 4 10 3 0 8 -4 11 -10z m-265 -15 c0 -2 -9 -3 -19
-2 -11 0 -18 5 -15 9 4 6 34 0 34 -7z m-1663 -1 c-3 -3 -12 -4 -19 -1 -8 3 -5
6 6 6 11 1 17 -2 13 -5z m113 -2 c0 -9 -88 -7 -97 2 -4 3 17 6 45 6 29 0 52
-4 52 -8z m-155 -16 c11 -3 52 -5 90 -6 42 -1 61 -5 47 -9 -18 -5 -206 -6
-318 -1 -7 0 -14 6 -17 14 -5 12 10 13 86 10 51 -2 101 -6 112 -8z m-65 -42
c0 -2 -11 -3 -24 -2 -14 1 -23 5 -20 9 4 7 44 0 44 -7z m35 6 c-3 -5 -12 -10
-18 -10 -7 0 -6 4 3 10 19 12 23 12 15 0z m80 0 c-8 -13 1 -13 27 1 16 9 19 8
13 -2 -6 -9 -2 -11 12 -7 12 3 27 2 34 -3 12 -7 11 -9 -1 -10 -18 -1 -51 0
-108 5 -23 2 -40 0 -37 -4 3 -5 1 -11 -4 -14 -5 -4 -8 2 -7 11 2 12 12 18 30
19 14 1 29 4 33 8 10 9 15 7 8 -4z m173 -29 c32 -37 25 -56 -21 -56 -25 0 -36
-4 -32 -12 2 -7 1 -12 -3 -12 -30 5 -152 -3 -152 -9 0 -5 41 -8 90 -7 50 1 90
-1 90 -4 -2 -23 -29 -37 -65 -35 -46 4 -108 14 -114 19 -1 2 -14 0 -27 -5 -15
-6 -26 -5 -30 2 -4 7 -3 8 4 4 7 -4 12 -2 12 3 0 6 5 10 11 9 6 -2 14 3 16 10
5 13 -12 15 -42 3 -14 -6 -25 -2 -37 12 -10 11 -18 21 -18 23 0 2 18 2 39 0
26 -2 42 1 45 9 3 10 -7 12 -40 10 -24 -1 -47 1 -49 5 -3 5 19 7 48 6 28 -1
56 3 60 8 5 7 7 4 3 -6 -6 -20 10 -25 17 -5 3 7 6 4 6 -7 1 -14 -4 -17 -19
-13 -11 3 -20 1 -20 -4 0 -5 10 -9 23 -10 12 0 48 -2 80 -4 31 -2 57 1 57 6 0
5 -25 9 -55 9 -43 0 -55 3 -55 15 0 13 4 14 21 4 13 -7 19 -7 15 -1 -6 10 13
10 96 -3 15 -2 31 2 38 10 9 11 9 15 1 15 -25 0 -51 20 -51 39 0 16 33 0 58
-28z m1437 29 c-3 -5 -12 -10 -18 -10 -7 0 -6 4 3 10 19 12 23 12 15 0z m105
-30 c0 -5 -10 -10 -22 -9 -22 0 -22 1 -3 9 11 5 21 9 23 9 1 1 2 -3 2 -9z m30
0 c0 -5 -4 -10 -10 -10 -5 0 -10 5 -10 10 0 6 5 10 10 10 6 0 10 -4 10 -10z
m50 2 c0 -4 -9 -8 -20 -9 -11 -1 -20 2 -20 5 0 4 9 8 20 9 11 1 20 -2 20 -5z
m-1953 -8 c-3 -3 -12 -4 -19 -1 -8 3 -5 6 6 6 11 1 17 -2 13 -5z m1763 -8
c-19 -6 -41 -15 -48 -20 -11 -7 -12 -4 -4 10 7 13 22 19 49 20 l38 1 -35 -11z
m-1745 -130 c22 -27 54 -63 71 -81 31 -32 49 -65 36 -65 -4 0 -16 12 -27 26
-11 14 -32 38 -47 54 -15 17 -25 30 -22 30 3 0 -9 15 -25 33 -17 17 -31 35
-31 39 0 4 -6 13 -12 20 -7 7 -19 22 -27 33 -19 28 36 -30 84 -89z m1752 92
c89 0 90 -10 1 -14 -35 -1 -75 -5 -90 -8 -16 -2 -28 -3 -28 0 0 11 26 32 33
27 5 -3 43 -5 84 -5z m153 -8 c-10 -6 -70 -1 -70 6 0 2 18 3 40 2 23 -1 36 -4
30 -8z m127 -16 c-3 -3 -12 -4 -19 -1 -8 3 -5 6 6 6 11 1 17 -2 13 -5z m-37
-23 c-16 -10 -91 -19 -210 -27 -128 -8 -144 -10 -167 -23 -26 -14 -31 0 -7 23
10 11 35 16 77 17 153 1 289 7 294 13 4 3 11 6 17 6 6 0 4 -5 -4 -9z m-1699
-34 c-10 -9 -11 -8 -5 6 3 10 9 15 12 12 3 -3 0 -11 -7 -18z m1729 -8 c0 -14
-20 -11 -21 4 0 10 -2 10 -6 0 -3 -8 -25 -13 -60 -13 -67 0 -65 8 3 16 27 3
50 7 52 9 7 6 32 -7 32 -16z m-1843 -15 c2 -7 -15 -11 -51 -10 -56 2 -80 11
-58 25 17 10 105 -2 109 -15z m36 -30 c-3 -8 -8 -14 -12 -15 -3 0 -14 -2 -23
-4 -10 -2 -18 0 -18 5 0 5 -11 7 -25 5 -14 -1 -25 1 -25 6 0 4 19 9 43 11 30
2 41 7 39 17 -3 12 0 12 12 2 8 -7 12 -19 9 -27z m1755 11 c-12 -9 -68 -13
-68 -4 0 6 5 7 10 4 6 -3 10 -2 10 3 0 5 11 7 25 4 14 -2 25 -6 23 -7z m-1709
-17 c-9 -16 -14 -19 -17 -9 -2 7 2 17 9 22 20 13 21 11 8 -13z m1459 11 c65 1
130 4 145 6 15 3 27 2 27 -3 0 -11 0 -11 -130 -13 -80 -1 -109 -5 -123 -17
-14 -12 -18 -13 -15 -3 2 7 -3 16 -11 19 -8 2 -11 0 -7 -6 6 -11 -19 -11 -30
0 -9 10 6 29 17 22 6 -3 63 -5 127 -5z m230 -21 c-4 -20 -30 -26 -73 -18 l-40
8 47 1 c26 0 50 6 53 11 9 14 16 13 13 -2z m32 -8 c0 -5 -5 -10 -11 -10 -5 0
-7 5 -4 10 3 6 8 10 11 10 2 0 4 -4 4 -10z m-1802 -10 c15 0 15 -1 0 -17 -14
-13 -20 -14 -32 -3 -21 16 -20 34 0 26 9 -3 23 -6 32 -6z m1630 -25 c-5 -5
-279 -12 -273 -7 2 3 30 6 60 7 31 1 58 4 60 6 2 2 38 3 80 1 42 -2 75 -5 73
-7z m-1588 -26 c-12 -40 -19 -47 -30 -29 -13 21 -12 26 6 44 24 25 33 19 24
-15z m1310 -39 c12 -7 10 -9 -8 -7 -12 0 -22 5 -22 9 0 11 12 10 30 -2z m344
2 c2 -4 -12 -8 -32 -9 -36 -1 -36 -1 -7 7 17 4 31 8 32 9 1 0 4 -3 7 -7z m-5
-38 c15 -13 -29 -17 -194 -18 -102 -1 -185 2 -185 6 0 5 15 8 33 8 59 1 252
12 255 15 4 4 86 -7 91 -11z m-169 -43 c0 -9 -4 -10 -100 -15 -41 -2 -96 -7
-123 -10 -45 -6 -47 -5 -35 14 12 19 23 20 136 19 67 0 122 -4 122 -8z m122
-26 c3 -17 -3 -20 -44 -20 -52 0 -51 14 0 18 20 1 32 7 32 16 0 19 7 11 12
-14z m-224 -30 c3 -3 -18 -5 -47 -4 -28 1 -47 5 -41 9 12 7 80 4 88 -5z m-168
-17 c0 8 5 10 12 5 7 -4 63 -7 125 -8 61 0 114 -3 117 -6 3 -3 -7 -6 -22 -6
-15 0 -85 -4 -157 -8 l-130 -7 19 21 c15 16 21 18 28 9 6 -10 8 -10 8 0z m285
2 c3 -5 1 -10 -4 -10 -6 0 -11 5 -11 10 0 6 2 10 4 10 3 0 8 -4 11 -10z m53
-55 c11 -11 -11 -20 -56 -23 -40 -3 -102 -4 -324 -3 -21 0 -38 5 -38 10 0 5 8
10 18 10 30 0 187 13 189 15 6 5 206 -4 211 -9z m-279 -54 c12 -7 39 -9 64 -6
23 3 71 7 107 8 36 1 68 7 72 12 5 6 8 2 8 -7 0 -22 -21 -27 -125 -31 -44 -1
-85 -6 -92 -10 -6 -4 -14 -3 -18 2 -4 7 -15 7 -31 1 -17 -7 -23 -7 -19 0 3 6
13 10 21 10 8 0 13 4 10 9 -7 11 -53 6 -71 -9 -8 -7 -15 -7 -19 -1 -10 16
-126 -27 -126 -48 0 -18 14 -20 32 -5 14 13 39 17 110 17 115 1 188 -5 188
-15 0 -5 -67 -8 -150 -8 -82 0 -150 -3 -150 -8 0 -4 79 -8 176 -9 97 -2 179
-5 183 -8 7 -8 -21 -25 -31 -19 -4 3 -8 0 -8 -5 0 -6 7 -11 16 -11 14 0 14 -3
4 -15 -7 -9 -10 -18 -6 -22 3 -3 6 -2 6 4 0 6 7 13 15 17 19 7 19 2 1 -17 -9
-9 -31 -13 -63 -11 -26 2 -120 4 -208 4 -126 0 -157 2 -147 12 8 8 53 13 125
15 221 6 247 8 247 18 0 7 -18 10 -42 8 -24 -1 -105 -5 -180 -7 -126 -4 -157
1 -128 19 8 5 7 11 0 20 -14 16 -8 26 38 77 34 37 35 37 102 34 37 -2 77 -9
89 -15z m238 -61 c4 -13 3 -13 -6 0 -9 13 -11 13 -16 -1 -6 -16 -41 -23 -50
-9 -3 5 -11 7 -18 4 -8 -3 -26 2 -42 10 -27 14 -25 15 50 13 60 -2 79 -6 82
-17z m-195 -140 c46 -2 68 -7 72 -16 7 -19 -53 -31 -176 -35 -48 -2 -68 -6
-68 -15 0 -7 9 -12 20 -11 11 1 20 5 20 9 0 4 5 8 11 8 5 0 8 -4 5 -9 -5 -8
12 -8 34 -1 3 1 23 2 45 2 22 0 43 5 47 12 5 7 8 6 8 -4 0 -13 1 -13 10 0 8
13 10 12 10 -3 0 -12 4 -16 13 -11 7 4 8 3 4 -2 -5 -5 -15 -9 -23 -9 -7 0 -13
-4 -11 -10 1 -5 8 -8 16 -7 7 2 10 -1 6 -8 -4 -6 -13 -9 -20 -6 -7 2 -23 -6
-36 -20 -12 -13 -19 -24 -15 -24 4 0 0 -7 -9 -17 -9 -9 -32 -17 -51 -17 -18
-1 -39 -7 -45 -13 -10 -10 -4 -11 24 -9 21 2 37 1 37 -3 0 -3 -11 -23 -25 -43
-13 -20 -26 -42 -27 -49 -2 -8 -12 -22 -22 -31 -10 -10 -15 -18 -11 -18 4 0
-2 -8 -13 -19 -12 -10 -19 -21 -16 -24 3 -3 -4 -8 -15 -12 -12 -3 -19 -9 -17
-13 8 -13 -42 -87 -55 -83 -35 9 -59 7 -56 -3 2 -6 16 -10 30 -8 30 4 37 -17
9 -25 -11 -3 -18 -13 -17 -25 2 -25 -29 -59 -47 -53 -7 2 -38 7 -68 10 -30 3
-73 8 -95 11 -22 3 -51 6 -65 7 -14 1 -31 10 -39 20 -7 10 -19 16 -27 13 -21
-8 -28 13 -10 33 9 10 16 23 16 29 0 7 5 12 10 12 6 0 10 7 10 15 0 8 5 15 10
15 6 0 10 4 10 10 0 5 21 42 47 82 27 40 51 80 55 88 25 52 105 155 121 154 9
-1 17 2 17 7 0 5 -5 9 -11 9 -6 0 -9 6 -7 13 5 12 18 14 131 16 40 1 67 5 67
12 0 7 -29 9 -85 6 -93 -5 -101 0 -65 45 21 27 24 27 332 18z m-2077 -80 c10
-11 16 -20 13 -20 -3 0 -13 9 -23 20 -10 11 -16 20 -13 20 3 0 13 -9 23 -20z
m2075 -90 c-6 -11 -15 -20 -20 -20 -6 0 -5 9 2 20 7 11 16 20 21 20 4 0 3 -9
-3 -20z m-72 -112 c-23 -35 -65 -103 -93 -151 -47 -81 -80 -114 -68 -67 3 11
9 20 14 20 5 0 9 7 9 15 0 8 5 15 10 15 6 0 10 7 10 15 0 8 5 15 10 15 6 0 10
5 10 11 0 6 14 28 30 49 17 21 30 41 30 44 0 15 71 108 77 102 3 -2 -15 -33
-39 -68z m-34 -118 c-21 -38 -40 -68 -42 -66 -3 3 23 55 65 129 2 4 6 7 9 7 3
0 -12 -31 -32 -70z m-124 -133 c0 -16 -45 -89 -62 -101 -15 -11 -18 -16 -8
-17 11 0 11 -2 2 -6 -6 -2 -10 -9 -7 -13 7 -11 -46 -61 -57 -54 -12 8 -10 34
4 34 6 0 8 3 5 7 -4 3 -15 -1 -24 -9 -12 -10 -30 -14 -53 -10 -19 2 -50 5 -67
6 -18 0 -33 4 -33 9 0 4 -16 7 -35 7 -19 0 -35 4 -35 9 0 5 50 8 113 6 123 -3
180 2 171 17 -3 5 2 20 10 33 9 14 15 25 12 25 -2 0 8 14 22 30 23 26 42 38
42 27z m-395 -58 c-4 -5 -3 -9 2 -10 4 0 17 -2 28 -5 26 -5 103 -16 135 -19
14 -2 25 -4 25 -5 0 -1 15 -3 33 -5 18 -1 35 -5 39 -8 3 -4 -59 -5 -138 -4
-79 2 -152 0 -161 -5 -10 -5 -19 -4 -23 2 -3 5 -12 7 -20 3 -19 -7 -19 2 2 37
14 24 20 27 40 19 22 -8 27 -5 24 14 -1 5 3 6 9 2 6 -3 8 -11 5 -16z m15 -80
c0 -4 -9 -7 -19 -6 -11 0 -18 4 -16 7 6 9 35 8 35 -1z m-25 -15 c28 -6 94 -15
133 -18 18 -2 36 -6 40 -10 3 -4 -46 -6 -111 -4 -76 2 -117 -1 -117 -7 0 -7
47 -11 131 -10 72 0 135 -2 140 -6 6 -4 1 -17 -13 -32 -22 -25 -25 -26 -73
-16 -27 6 -59 12 -70 14 -11 1 -20 3 -20 5 0 1 -13 4 -30 6 -87 12 -96 15
-105 40 -5 13 -15 24 -21 24 -8 0 -8 5 1 16 13 15 33 14 115 -2z m-105 -34 c0
-5 -2 -10 -4 -10 -3 0 -8 5 -11 10 -3 6 -1 10 4 10 6 0 11 -4 11 -10z m361
-59 c-21 -29 -51 -42 -51 -22 0 5 12 23 27 40 35 39 54 25 24 -18z m-360 19
c2 1 24 -3 48 -10 25 -6 55 -10 67 -7 13 2 21 0 18 -4 -3 -5 -2 -9 3 -10 8 -1
33 -4 98 -12 19 -3 31 -11 33 -22 3 -12 0 -15 -9 -10 -9 6 -11 3 -6 -8 3 -10
2 -17 -3 -17 -6 0 -10 -7 -10 -16 0 -14 -9 -15 -62 -8 -35 4 -73 7 -85 8 -13
0 -23 5 -23 11 0 5 -5 3 -10 -5 -6 -10 -10 -11 -10 -3 0 7 -10 12 -22 12 -13
0 -32 2 -43 4 -11 3 -32 6 -47 6 -16 1 -28 5 -28 9 0 4 52 7 115 7 63 -1 115
2 115 7 0 4 -49 8 -110 8 l-110 0 17 35 c16 34 42 49 54 32 3 -5 8 -8 10 -7z
m297 -104 c-25 -38 -48 -54 -48 -32 0 19 40 67 51 61 5 -4 9 -1 9 6 0 7 3 10
6 7 3 -4 -5 -22 -18 -42z m-328 -8 c0 -4 5 -8 11 -8 5 0 7 6 3 13 -6 9 -4 9 7
1 14 -12 41 -19 114 -30 22 -3 45 -7 52 -8 7 -1 16 -5 19 -9 7 -7 -20 -8 -233
-8 -76 -1 -99 -8 -74 -24 14 -8 201 -46 234 -47 16 -1 23 -4 18 -8 -9 -5 -136
-6 -136 -1 0 1 -38 4 -85 6 -47 2 -88 4 -93 4 -6 1 9 24 69 107 11 16 25 22
55 21 21 -1 39 -5 39 -9z m243 -69 c22 0 22 -2 -5 -25 -19 -17 -21 -17 -15 -1
4 9 2 17 -2 17 -5 0 -11 -6 -14 -12 -4 -13 -107 -20 -107 -8 0 3 -15 7 -32 8
-18 2 -42 4 -53 7 -11 2 -26 4 -32 4 -7 1 -13 5 -13 9 0 7 115 7 273 1z m-303
-69 c0 -3 16 -6 35 -7 23 0 33 3 28 11 -3 6 0 6 8 -1 8 -8 41 -13 82 -13 60 0
68 -2 65 -17 -2 -11 -12 -18 -26 -17 -23 1 -31 -21 -9 -29 11 -5 -38 -11 -57
-8 -33 7 -108 3 -116 -5 -6 -6 19 -10 74 -9 69 0 83 -3 76 -14 -13 -24 -172
-29 -342 -12 -4 1 -5 8 -2 16 7 16 52 15 125 -3 40 -10 53 -6 56 18 2 13 -11
16 -74 18 -43 2 -79 5 -81 7 -2 2 4 15 13 29 17 25 62 36 79 19 3 -4 17 -8 29
-10 12 -2 47 -8 77 -14 30 -6 64 -12 75 -13 11 -1 26 -5 33 -9 7 -5 12 -3 12
7 0 10 -9 16 -22 17 -13 0 -32 2 -43 4 -62 12 -84 16 -117 21 -45 7 -50 19 -8
19 17 1 30 -2 30 -5z m-50 -86 c0 -8 -19 -13 -24 -6 -3 5 1 9 9 9 8 0 15 -2
15 -3z m42 -67 c29 -2 58 -6 65 -10 6 -4 15 -2 19 4 5 8 3 9 -6 4 -8 -5 -11
-4 -7 2 9 15 55 4 53 -13 -4 -25 -15 -27 -83 -13 -37 7 -72 13 -78 14 -5 0
-20 6 -32 12 -17 10 -22 10 -26 0 -3 -9 -8 -9 -18 2 -8 8 -9 11 -2 7 6 -3 14
-2 18 4 4 7 12 7 25 0 11 -6 43 -12 72 -13z m-132 -5 c0 -4 -18 -8 -40 -9 -23
-1 -38 2 -35 8 7 11 75 12 75 1z m-62 -34 c-2 -6 6 -13 17 -15 11 -3 27 -7 35
-10 8 -4 24 -7 35 -8 11 0 25 -4 32 -8 11 -7 56 -16 95 -20 9 -1 14 -5 12 -9
-7 -11 -36 -6 -47 7 -6 7 -10 6 -13 -2 -4 -8 -13 -9 -35 -1 -16 5 -47 8 -69 6
-22 -2 -40 -1 -40 2 0 4 -20 6 -45 5 -25 0 -45 2 -45 5 1 9 25 35 45 47 26 15
25 15 23 1z m118 -2 c11 -2 54 -7 95 -11 41 -4 76 -8 78 -11 10 -10 -23 -32
-42 -27 -12 2 -31 6 -42 8 -11 2 -21 4 -22 5 -5 4 -15 6 -68 15 -27 4 -63 14
-80 22 -30 13 -30 13 15 8 25 -3 54 -7 66 -9z m-126 -64 c0 -4 29 -8 65 -7 36
0 65 -2 65 -5 0 -6 10 -7 78 -10 23 -1 42 -6 42 -11 0 -18 -41 -50 -53 -42 -7
5 -56 20 -109 33 -54 13 -100 30 -102 37 -3 7 -1 13 4 13 6 0 10 -4 10 -8z
m-5 -32 c26 -11 59 -21 73 -21 27 -1 27 -1 -3 -8 -17 -4 -33 -2 -37 4 -4 5 -8
6 -8 1 0 -5 -6 -4 -12 1 -7 5 -28 8 -45 7 -18 -1 -33 2 -33 7 0 4 -8 5 -17 2
-16 -6 -16 -5 -4 10 17 22 29 21 86 -3z m-7 -37 c20 -3 53 -6 74 -7 20 -1 34
-4 31 -8 -2 -5 8 -9 24 -9 15 -1 33 -2 38 -4 6 -1 18 -3 28 -3 15 -2 16 -5 7
-22 -7 -13 -18 -19 -28 -16 -9 3 -29 7 -44 10 -14 2 -36 9 -47 16 -12 6 -21 7
-21 3 0 -4 -5 -2 -12 5 -7 7 -21 12 -32 12 -12 0 -39 9 -61 20 -22 11 -30 17
-17 14 13 -3 40 -8 60 -11z m-1508 0 c0 -16 -197 -305 -212 -311 -5 -2 -8 -8
-8 -13 0 -6 -5 -15 -10 -22 -6 -7 -19 -23 -30 -37 -16 -20 -19 -21 -13 -5 3
11 9 22 13 25 15 11 70 100 63 100 -4 0 -3 4 2 8 18 12 66 82 58 82 -4 0 -3 4
2 8 6 4 35 44 65 90 49 73 70 96 70 75z m1430 -9 c11 -2 46 -16 62 -25 10 -5
23 -9 30 -9 7 0 36 -9 63 -20 45 -18 47 -20 15 -16 -43 6 -91 15 -108 21 -7 3
-10 0 -7 -5 3 -6 2 -10 -4 -10 -5 0 -11 4 -13 9 -4 12 -83 19 -83 7 0 -5 9
-14 20 -20 11 -6 23 -15 27 -21 4 -5 8 -6 8 -2 0 4 9 3 21 -4 14 -7 24 -8 31
-1 7 7 -1 13 -26 18 -26 4 -34 10 -27 17 7 7 14 7 24 -1 7 -6 32 -13 55 -14
23 -2 42 -6 42 -9 0 -3 6 -6 13 -6 24 -1 91 -14 96 -18 3 -3 -2 -12 -10 -19
-12 -11 -24 -10 -81 9 -39 13 -72 18 -80 14 -10 -7 -10 -9 0 -9 6 0 12 -5 12
-11 0 -5 -4 -7 -10 -4 -17 10 -121 35 -129 31 -4 -3 -13 -1 -20 3 -15 10 -3
39 30 75 11 11 19 24 19 28 0 5 6 6 13 1 6 -4 14 -8 17 -9z m-10 -118 c0 4 7
1 15 -6 8 -7 15 -10 15 -7 0 3 21 0 48 -8 26 -8 59 -16 74 -19 15 -2 34 -9 43
-14 14 -7 14 -10 2 -20 -10 -9 -22 -9 -48 1 -19 6 -36 15 -39 19 -3 4 -17 1
-32 -6 -15 -8 -31 -10 -39 -5 -7 4 -16 6 -20 3 -4 -2 -10 0 -14 5 -3 6 -12 8
-20 4 -8 -3 -23 -2 -32 3 -10 4 -29 8 -43 10 -14 1 -29 2 -33 3 -4 1 -3 10 3
22 8 14 17 18 28 14 9 -4 23 -8 30 -8 6 0 12 -4 12 -9 0 -4 9 -8 19 -8 11 0
23 -5 26 -10 4 -6 10 -8 15 -5 5 3 11 1 15 -5 8 -14 45 -13 45 1 0 6 -6 9 -13
6 -7 -3 -21 1 -32 9 -10 8 -26 14 -36 14 -9 0 -22 7 -29 15 -11 14 -10 14 14
6 14 -6 26 -8 26 -5z m-73 -91 c37 -19 62 -35 55 -35 -7 0 -12 -4 -12 -9 0 -6
9 -8 20 -6 11 2 20 1 20 -3 0 -4 23 -13 52 -20 60 -14 60 -14 52 -35 -11 -29
-36 -27 -111 8 -41 19 -77 35 -81 35 -15 0 -102 45 -102 52 0 5 8 4 18 -1 11
-6 27 -10 38 -9 10 0 34 -5 52 -10 19 -6 32 -7 32 -1 0 5 -3 9 -7 10 -5 0 -15
2 -23 5 -8 2 -28 6 -45 10 -55 11 -59 13 -45 29 7 8 14 15 16 15 2 0 34 -16
71 -35z m78 16 c39 -11 83 -22 98 -25 51 -9 66 -17 61 -31 -10 -26 -34 -24
-106 6 -40 17 -81 33 -90 36 -10 3 -18 10 -18 15 0 5 -4 7 -9 3 -5 -3 -12 -1
-16 5 -9 14 0 13 80 -9z m-159 -66 c10 -8 27 -15 36 -15 9 0 18 -4 20 -10 2
-5 12 -11 23 -14 42 -9 65 -19 65 -28 0 -5 5 -6 10 -3 6 3 10 1 10 -4 0 -14
-6 -14 -31 -1 -10 6 -38 13 -61 16 -24 4 -51 10 -61 16 -9 5 -22 6 -28 2 -6
-4 -15 0 -20 7 -6 11 -11 11 -20 2 -9 -9 -2 -13 27 -19 22 -3 44 -10 49 -14 6
-4 28 -10 50 -14 22 -4 53 -12 68 -18 23 -9 31 -8 38 3 7 11 9 11 9 -3 0 -9 9
-18 19 -20 18 -3 18 -5 5 -22 -13 -19 -15 -19 -84 4 -38 13 -70 27 -70 32 0 5
-4 7 -8 4 -6 -4 -104 36 -120 49 -1 1 3 16 9 33 12 35 34 41 65 17z m332 -47
c-6 -18 -12 -39 -14 -45 -4 -15 -44 -18 -44 -3 0 8 58 80 65 80 2 0 -2 -15 -7
-32z m-303 -68 c19 -6 37 -15 40 -20 6 -10 -15 -8 -32 3 -8 5 -13 3 -13 -4 0
-8 -4 -8 -15 1 -9 7 -18 10 -21 7 -3 -3 -23 0 -43 8 -59 20 -75 3 -32 -35 18
-16 38 -30 42 -30 5 0 9 -7 9 -15 0 -16 -12 -20 -24 -8 -3 4 -12 8 -19 9 -7 1
-27 5 -45 8 -35 7 -42 -9 -11 -25 44 -23 84 -39 101 -39 10 0 18 -4 18 -10 0
-5 8 -10 18 -10 9 0 24 -5 32 -11 11 -7 2 -8 -30 -3 -25 4 -53 8 -62 8 -10 0
-18 3 -18 6 0 3 -16 6 -35 6 -48 0 -44 -17 9 -39 24 -10 52 -25 62 -33 11 -9
14 -13 7 -10 -6 4 -38 9 -70 12 -52 6 -56 5 -45 -9 7 -9 27 -19 43 -22 16 -4
32 -11 35 -17 4 -6 -1 -8 -14 -4 -11 4 -30 9 -41 11 -12 2 -25 6 -29 9 -4 2
-14 1 -21 -3 -15 -10 39 -40 73 -42 13 0 16 -3 7 -6 -17 -7 -121 17 -121 28 0
4 -9 5 -20 2 -30 -8 -25 -17 23 -41 l42 -21 -40 6 c-22 3 -51 6 -65 7 -14 0
-28 6 -32 11 -5 6 -8 5 -8 -3 0 -8 -5 -10 -12 -6 -10 5 -10 4 -1 -6 6 -7 50
-22 97 -35 47 -12 89 -25 93 -28 3 -4 16 -7 27 -7 12 0 30 -7 41 -16 20 -15
20 -15 0 -12 -11 2 -26 7 -32 11 -8 5 -13 3 -13 -3 0 -7 9 -14 20 -17 11 -3
17 -9 14 -15 -4 -5 -10 -5 -17 1 -7 5 -16 10 -22 10 -5 1 -10 6 -10 13 0 13
-38 23 -115 33 -25 3 -57 7 -72 9 -19 2 -25 -1 -21 -10 3 -8 9 -15 14 -15 12
-2 28 -6 34 -9 7 -4 15 -6 60 -15 45 -9 105 -33 105 -41 0 -3 -8 -3 -19 1 -10
3 -38 8 -62 10 -24 3 -69 9 -99 14 -30 5 -57 7 -59 6 -9 -9 13 -25 35 -25 14
0 23 -4 20 -9 -3 -4 -29 -6 -58 -3 -47 4 -51 2 -38 -10 8 -8 42 -23 75 -33 67
-20 98 -39 50 -31 -16 3 -47 8 -69 11 -21 4 -48 9 -60 12 -18 4 -41 7 -110 12
-17 2 134 215 230 324 13 15 24 30 24 33 0 3 23 33 51 67 66 80 70 86 97 124
l23 32 44 -24 c25 -13 61 -29 80 -35z m239 -19 c7 -11 -66 -121 -81 -121 -6 0
-13 6 -15 12 -6 17 28 52 41 43 7 -4 11 5 11 22 0 39 29 68 44 44z m-254 -16
c25 -3 54 -8 65 -11 11 -2 35 -7 53 -10 22 -4 32 -12 32 -25 0 -22 -35 -45
-45 -29 -4 6 -10 8 -15 5 -5 -3 -11 -1 -15 5 -4 6 -11 8 -16 5 -5 -4 -9 -1 -9
6 0 7 -3 10 -6 6 -9 -8 -104 41 -104 54 0 5 4 8 8 5 4 -2 28 -7 52 -11z m35
-73 c-6 -7 -55 11 -50 18 3 5 16 3 29 -3 14 -7 23 -13 21 -15z m41 -32 c16 0
24 -5 21 -12 -2 -7 -11 -11 -18 -9 -8 2 -19 4 -26 5 -7 1 -16 5 -19 9 -4 4
-16 7 -26 7 -11 0 -17 4 -13 10 4 6 15 6 31 0 14 -6 37 -10 50 -10z m-106 -50
c0 -3 18 -6 41 -7 44 -2 54 -6 45 -21 -3 -5 -31 -2 -66 7 -60 16 -77 27 -40
27 11 0 20 -3 20 -6z m37 -76 c-3 -3 -12 -4 -19 -1 -8 3 -5 6 6 6 11 1 17 -2
13 -5z m-124 -74 c9 0 17 -4 17 -9 0 -11 -24 -8 -60 8 l-25 12 25 -6 c14 -2
33 -5 43 -5z m142 -30 c-3 -5 -10 -10 -16 -10 -5 0 -9 5 -9 10 0 6 7 10 16 10
8 0 12 -4 9 -10z m-77 -10 c1 0 2 -4 2 -10 0 -5 -9 -10 -20 -10 -11 0 -20 4
-20 9 0 5 -8 12 -17 14 -13 3 31 1 55 -3z m2 -80 c0 -5 -5 -10 -11 -10 -5 0
-7 5 -4 10 3 6 8 10 11 10 2 0 4 -4 4 -10z m-240 -30 c0 -5 -4 -10 -10 -10 -5
0 -10 5 -10 10 0 6 5 10 10 10 6 0 10 -4 10 -10z m120 0 c0 -5 -5 -10 -11 -10
-5 0 -7 5 -4 10 3 6 8 10 11 10 2 0 4 -4 4 -10z m2 -47 c5 -2 6 -8 3 -13 -5
-8 -95 17 -95 26 0 6 81 -6 92 -13z m-235 -33 c54 -11 115 -24 135 -29 23 -5
38 -5 40 1 2 5 11 6 20 3 15 -6 16 -9 3 -21 -8 -8 -19 -22 -24 -31 -8 -15 -13
-15 -52 -2 -24 7 -46 14 -49 15 -3 0 -22 8 -44 17 -21 9 -42 17 -45 17 -13 0
-106 49 -94 49 7 1 56 -8 110 -19z m-137 -6 c0 -2 -9 -4 -21 -4 -11 0 -18 4
-14 10 5 8 35 3 35 -6z m28 -38 c13 -3 32 -8 42 -11 10 -3 27 -7 37 -9 14 -3
76 -20 113 -31 3 -1 18 -5 33 -10 31 -8 31 -31 1 -28 -32 4 -49 8 -59 14 -5 4
-23 10 -40 14 -16 5 -34 9 -40 11 -5 1 -48 16 -95 33 -75 27 -72 33 8 17z
m-38 -32 c19 -4 38 -7 43 -6 4 1 7 -3 7 -9 0 -6 -14 -8 -36 -4 -22 3 -42 1
-51 -6 -11 -9 -12 -9 -8 3 5 12 0 15 -19 13 -30 -4 -31 -2 -10 20 10 10 20 12
28 6 6 -5 27 -12 46 -17z m-32 -64 c6 0 12 -4 12 -9 0 -11 -66 -3 -95 12 -19
10 -19 10 0 17 10 4 31 1 45 -7 14 -7 31 -13 38 -13z m102 15 c14 -2 39 -8 55
-12 17 -4 32 -7 35 -8 3 -1 24 -5 48 -9 46 -8 46 -9 32 -35 -9 -17 -18 -15
-136 25 -70 24 -130 46 -132 49 -6 5 49 0 98 -10z m-140 -80 c25 -9 55 -19 68
-22 12 -3 22 -9 22 -14 0 -5 -6 -6 -12 -4 -7 2 -44 11 -83 20 -103 24 -104 25
-99 40 6 14 22 11 104 -20z m88 22 c12 -1 22 -5 22 -8 0 -3 6 -6 13 -6 22 -1
75 -13 100 -22 14 -6 27 -8 30 -5 2 2 9 -2 16 -9 9 -11 8 -17 -3 -26 -10 -9
-25 -7 -61 9 -27 11 -55 22 -64 24 -9 2 -23 6 -31 9 -43 18 -76 30 -82 31 -3
1 -9 4 -13 8 -4 3 6 4 22 2 15 -3 38 -6 51 -7z m-1205 -21 c4 -10 0 -12 -15
-8 -15 4 -17 7 -6 13 17 11 15 11 21 -5z m1048 -43 c12 -15 12 -16 -1 -8 -8 5
-24 11 -34 12 -30 5 -32 13 -4 13 14 0 32 -8 39 -17z m-21 -49 c0 -6 -72 4
-79 12 -3 3 1 9 9 14 13 8 70 -13 70 -26z m-1006 11 c25 -19 16 -19 -20 0 -16
8 -22 15 -14 15 8 -1 24 -7 34 -15z m1080 7 c2 -4 18 -9 34 -10 17 -1 48 -9
71 -17 23 -8 41 -13 41 -11 0 2 17 -2 37 -9 41 -14 52 -29 29 -38 -13 -5 -51
8 -201 68 -11 4 -26 9 -33 11 -24 5 -26 14 -4 14 11 0 23 -4 26 -8z m241 -30
c-19 -3 -95 23 -95 32 0 2 26 -4 58 -13 33 -9 48 -17 37 -19z m-280 0 c-3 -3
-11 0 -18 7 -9 10 -8 11 6 5 10 -3 15 -9 12 -12z m-59 -32 c2 0 4 -5 4 -11 0
-6 -5 -7 -12 -2 -7 4 -24 9 -38 11 -14 1 -32 5 -40 8 -12 4 -12 6 0 14 9 5 27
3 48 -6 19 -8 36 -14 38 -14z m192 -23 c23 -7 40 -16 36 -19 -3 -4 -16 -3 -27
2 -39 15 -62 23 -75 26 -8 1 -17 5 -20 9 -8 8 29 0 86 -18z m-277 -15 c-7 -2
-18 1 -23 6 -8 8 -4 9 13 5 13 -4 18 -8 10 -11z m129 0 c0 -5 10 -8 23 -7 12
1 27 0 32 -4 6 -3 12 -6 15 -6 3 -1 30 -5 60 -10 30 -5 57 -9 60 -10 11 -1 30
-17 30 -25 0 -14 -29 -20 -53 -11 -56 23 -81 31 -92 31 -3 0 -19 7 -35 15 -16
8 -32 15 -35 15 -20 -1 -25 1 -25 10 0 6 5 10 10 10 6 0 10 -4 10 -8z m235
-12 c3 -5 -1 -10 -9 -10 -8 0 -18 5 -21 10 -3 6 1 10 9 10 8 0 18 -4 21 -10z
m-1206 -11 c17 -6 31 -15 31 -20 0 -13 -27 -11 -35 2 -4 6 -17 14 -29 19 -31
13 -4 12 33 -1z m931 -21 c0 -6 -6 -5 -15 2 -8 7 -15 14 -15 16 0 2 7 1 15 -2
8 -4 15 -11 15 -16z m85 -14 c33 -9 65 -17 70 -18 19 -3 10 -21 -10 -18 -25 4
-135 43 -135 48 0 7 14 4 75 -12z m-285 -41 c0 -5 -5 -15 -10 -23 -8 -12 -10
-11 -10 8 0 12 5 22 10 22 6 0 10 -3 10 -7z"/>
<path d="M2143 5436 c-11 -9 -29 -17 -40 -19 -10 -2 -31 -9 -46 -15 -16 -7
-34 -12 -41 -12 -6 0 -16 -4 -22 -10 -5 -5 -18 -11 -29 -13 -11 -2 -27 -7 -35
-10 -29 -12 -136 -45 -168 -51 -30 -7 -49 -22 -40 -32 3 -2 25 3 49 12 24 8
51 17 59 19 8 2 36 10 63 18 26 8 47 12 47 9 0 -4 4 -2 8 5 4 7 23 15 41 18
19 3 42 10 52 16 11 5 19 8 19 5 0 -3 16 2 35 10 19 8 37 14 40 13 17 -2 64
14 60 21 -3 5 -1 11 4 14 5 4 8 -2 7 -11 -2 -9 -9 -21 -17 -25 -31 -18 -252
-108 -264 -108 -15 0 -40 -28 -32 -36 3 -4 30 0 59 7 54 14 63 16 86 18 6 0
12 8 12 17 0 10 -5 12 -12 7 -19 -11 -39 -13 -32 -2 3 5 9 9 13 9 5 0 26 8 47
17 22 9 46 18 54 19 8 2 16 7 18 13 2 5 10 7 18 4 8 -3 14 -1 14 5 0 5 10 13
23 17 12 4 25 8 30 10 18 6 22 7 30 6 4 0 7 4 7 9 0 6 8 10 17 10 25 0 6 13
-25 17 -15 2 -40 6 -57 9 -19 3 -38 -1 -52 -10z"/>
<path d="M2174 5323 c3 -7 1 -13 -4 -13 -6 0 -10 4 -10 9 0 4 -11 6 -25 3 -14
-2 -25 -8 -25 -13 0 -5 11 -7 25 -3 42 10 27 -10 -28 -36 -32 -16 -53 -33 -55
-45 -3 -15 -1 -17 8 -9 20 19 102 4 123 -23 10 -12 25 -23 34 -23 11 0 7 7
-11 21 -14 11 -24 24 -21 29 3 4 -2 13 -10 20 -8 7 -15 8 -15 3 0 -11 -65 -11
-76 0 -4 4 -1 7 7 7 8 0 36 13 61 29 25 16 48 28 50 26 2 -2 14 5 28 16 l25
19 -43 -2 c-30 -1 -41 -6 -38 -15z"/>
<path d="M2060 5300 c0 -5 9 -10 20 -10 11 0 20 5 20 10 0 6 -9 10 -20 10 -11
0 -20 -4 -20 -10z"/>
<path d="M3248 1956 c-19 -14 -26 -42 -8 -31 9 6 34 45 28 45 -2 0 -11 -7 -20
-14z"/>
<path d="M2157 1483 c-15 -14 -6 -36 27 -66 46 -42 69 -62 79 -65 4 -1 28 -22
55 -47 26 -25 54 -45 62 -44 13 0 13 1 1 6 -8 3 -40 30 -70 59 -30 30 -60 54
-68 54 -7 0 -13 6 -13 14 0 8 -8 17 -18 20 -16 6 -47 44 -40 51 2 2 23 5 46 6
23 2 42 6 42 9 0 9 -95 12 -103 3z"/>
<path d="M2270 1480 c0 -5 5 -10 11 -10 5 0 7 5 4 10 -3 6 -8 10 -11 10 -2 0
-4 -4 -4 -10z"/>
<path d="M2300 1480 c0 -5 5 -10 11 -10 5 0 7 5 4 10 -3 6 -8 10 -11 10 -2 0
-4 -4 -4 -10z"/>
<path d="M1890 1403 c0 -15 62 -63 72 -57 12 8 -15 44 -32 44 -9 0 -21 5 -28
12 -8 8 -12 9 -12 1z"/>
<path d="M1970 1370 c0 -6 6 -10 14 -10 7 0 27 -7 42 -15 34 -18 64 -19 64 -4
0 6 -7 8 -16 5 -9 -4 -23 -1 -30 5 -8 6 -14 8 -14 4 0 -4 -6 -3 -12 2 -21 16
-48 23 -48 13z"/>
<path d="M1970 1341 c0 -9 30 -25 43 -23 4 1 7 -2 7 -8 0 -5 6 -10 13 -10 8 0
24 -9 36 -19 13 -11 36 -23 52 -26 16 -4 29 -10 29 -15 0 -4 12 -13 28 -19 15
-6 42 -20 60 -31 17 -11 32 -16 32 -12 0 9 -143 92 -158 92 -7 0 -12 4 -12 10
0 5 -11 12 -25 16 -14 3 -25 11 -25 17 0 6 -3 7 -6 4 -4 -4 -19 2 -34 13 -31
22 -40 24 -40 11z"/>
<path d="M2104 1323 c3 -4 13 -8 21 -9 8 -1 27 -8 42 -16 29 -15 53 -13 53 3
0 4 -7 6 -15 3 -8 -4 -22 -1 -30 6 -8 7 -15 9 -15 4 0 -4 -5 -3 -12 4 -7 7
-21 12 -32 12 -10 0 -16 -3 -12 -7z"/>
<path d="M2230 1280 c0 -5 9 -10 19 -10 11 0 23 -5 26 -10 4 -6 11 -8 16 -4 5
3 16 0 24 -6 8 -7 15 -9 15 -5 0 4 6 3 13 -3 22 -18 82 -19 71 -1 -3 6 -17 9
-30 6 -14 -2 -27 0 -30 4 -3 5 -14 9 -25 9 -10 0 -19 4 -19 9 0 5 -8 7 -19 4
-10 -3 -22 0 -25 6 -9 14 -36 14 -36 1z"/>
<path d="M2280 1170 c0 -5 5 -10 11 -10 5 0 7 5 4 10 -3 6 -8 10 -11 10 -2 0
-4 -4 -4 -10z"/>
<path d="M5240 5416 c0 -2 8 -10 18 -17 15 -13 16 -12 3 4 -13 16 -21 21 -21
13z"/>
<path d="M5036 5394 c-3 -8 -10 -13 -15 -12 -5 2 -11 -1 -12 -7 -3 -6 21 -10
59 -11 34 0 62 3 62 8 0 4 -13 8 -30 8 -16 0 -30 4 -30 9 0 16 -28 20 -34 5z
m29 -14 c3 -6 -1 -7 -9 -4 -18 7 -21 14 -7 14 6 0 13 -4 16 -10z"/>
<path d="M5146 5372 c-5 -8 71 -8 79 0 3 2 -13 5 -34 6 -22 2 -42 -1 -45 -6z"/>
<path d="M5215 5160 c-3 -5 -1 -10 4 -10 6 0 11 5 11 10 0 6 -2 10 -4 10 -3 0
-8 -4 -11 -10z"/>
<path d="M3176 4762 c-2 -4 6 -9 20 -10 13 -1 24 3 24 8 0 12 -37 14 -44 2z"/>
<path d="M3320 4690 c-9 -6 -10 -10 -3 -10 6 0 15 5 18 10 8 12 4 12 -15 0z"/>
<path d="M4513 3676 c4 -12 87 -14 94 -3 3 6 1 7 -5 3 -7 -4 -17 -4 -24 0 -16
10 -69 11 -65 0z"/>
<path d="M4710 3660 c0 -4 7 -7 15 -6 23 3 26 12 5 13 -11 1 -20 -2 -20 -7z"/>
<path d="M4706 3593 c-4 -4 -26 -8 -49 -9 -86 -3 -137 -8 -137 -14 0 -3 -16
-5 -35 -4 -19 1 -35 -2 -35 -7 0 -5 -6 -9 -14 -9 -8 0 -16 -7 -20 -15 -3 -8
-1 -15 4 -15 6 0 10 4 10 10 0 9 61 25 93 23 9 0 17 2 17 6 0 3 36 6 81 6 67
0 83 3 90 18 10 18 8 22 -5 10z"/>
<path d="M4550 3358 c0 -4 4 -8 9 -8 6 0 12 4 15 8 3 5 -1 9 -9 9 -8 0 -15 -4
-15 -9z"/>
<path d="M4596 3358 c3 -5 10 -6 15 -3 13 9 11 12 -6 12 -8 0 -12 -4 -9 -9z"/>
<path d="M4309 3350 c-12 -3 -25 -12 -27 -19 -3 -8 0 -11 6 -7 6 3 12 2 14 -3
1 -5 19 -12 38 -14 19 -3 35 -6 35 -7 0 -1 14 -3 30 -5 17 -1 30 -3 30 -5 0
-1 15 -3 34 -5 18 -1 37 -8 42 -16 6 -10 8 -8 7 7 -2 15 -9 20 -27 19 -15 -1
-36 2 -48 7 -13 4 -38 8 -58 10 -19 1 -35 5 -35 9 0 5 -10 6 -22 4 -16 -3 -19
-2 -10 7 6 6 48 10 110 9 55 -1 103 2 106 7 5 9 -187 11 -225 2z"/>
<path d="M4245 3229 c2 -3 21 -5 42 -4 21 1 46 -2 56 -7 9 -5 23 -6 30 -1 6 4
45 8 85 9 40 1 75 4 78 7 3 3 -62 5 -144 4 -83 -1 -148 -5 -147 -8z"/>
<path d="M4140 3070 c0 -5 5 -10 11 -10 5 0 7 5 4 10 -3 6 -8 10 -11 10 -2 0
-4 -4 -4 -10z"/>
<path d="M4270 2961 c0 -4 15 -7 34 -7 19 0 33 3 30 7 -5 9 -64 9 -64 0z"/>
<path d="M4026 2662 c-7 -12 56 -13 74 -2 11 7 3 10 -27 10 -23 0 -44 -4 -47
-8z"/>
<path d="M5900 1118 c0 -5 -6 -6 -12 -2 -7 4 -9 3 -5 -1 8 -9 19 -12 72 -17
21 -2 31 2 33 13 2 14 -5 17 -42 16 -26 0 -46 -5 -46 -9z"/>
<path d="M5967 1063 c-11 -11 -8 -20 8 -20 8 0 15 6 15 14 0 14 -12 17 -23 6z"/>
<path d="M1971 1052 c-1 -7 5 -14 12 -16 6 -2 20 -7 30 -10 9 -3 19 -5 22 -6
3 0 19 -7 36 -15 17 -9 36 -14 42 -11 9 3 9 5 -1 5 -6 1 -35 12 -63 26 -29 13
-55 22 -60 20 -4 -3 -10 1 -12 7 -4 10 -6 10 -6 0z"/>
<path d="M2130 982 c0 -4 9 -8 20 -9 11 -1 18 2 15 8 -7 11 -35 12 -35 1z"/>
</g>
</svg>
